<svg width="1103" height="671" viewBox="0 0 1103 671" fill="none" xmlns="http://www.w3.org/2000/svg">
<rect width="1103" height="671" fill="#F5F5F5"/>
<rect x="124" y="73" width="764" height="500" fill="#EAEAEA"/>
<rect x="472.5" y="46.5" width="413" height="370" stroke="black" stroke-width="5"/>
<path d="M887.499 573.685C865.108 573.595 842.955 569.095 822.304 560.444C801.653 551.792 782.908 539.157 767.139 523.261C751.371 507.365 738.888 488.518 730.403 467.798C721.918 447.078 717.598 424.889 717.688 402.499C717.779 380.108 722.278 357.955 730.93 337.304C739.582 316.653 752.217 297.908 768.113 282.139C784.009 266.371 802.855 253.888 823.576 245.403C844.296 236.918 866.485 232.598 888.875 232.688L888.187 403.187L887.499 573.685Z" fill="#FAF6F6"/>
<line x1="124" y1="438" x2="692" y2="438" stroke="white" stroke-width="6"/>
<line x1="124" y1="544" x2="448" y2="544" stroke="white" stroke-width="6"/>
<line x1="84" y1="503.5" x2="692" y2="503.5" stroke="#535F82" stroke-width="9"/>
<rect x="124" y="13" width="105" height="279" fill="#535F82"/>
<rect x="124.5" y="13.5" width="104" height="278" stroke="white" stroke-opacity="0.5"/>
<rect x="408" y="264" width="142" height="110" fill="#535F82"/>
<rect x="512.5" y="74.5" width="264" height="230" fill="black" stroke="black" stroke-width="3"/>
<rect x="661.5" y="210.5" width="264" height="230" stroke="black" stroke-width="3"/>
<path d="M319 573.5C319 547.641 308.728 522.842 290.443 504.557C272.158 486.272 247.359 476 221.5 476C195.641 476 170.842 486.272 152.557 504.557C134.272 522.842 124 547.641 124 573.5L221.5 573.5H319Z" fill="black"/>
<line x1="58" y1="378" x2="350" y2="378" stroke="#F6F5F9" stroke-width="50"/>
<line x1="648" y1="363" x2="648" y2="590" stroke="black" stroke-width="4"/>
<line x1="439" y1="363" x2="439" y2="605" stroke="black" stroke-width="4"/>
<line x1="774" y1="406" x2="774" y2="648" stroke="black" stroke-width="4"/>
<line x1="961" y1="68" x2="961" y2="310" stroke="black" stroke-width="4"/>
<line x1="681" y1="469" x2="681" y2="590" stroke="black" stroke-width="4"/>
<line x1="576" y1="114" x2="888" y2="114" stroke="black" stroke-width="2"/>
<line x1="610.99" y1="139" x2="932.99" y2="137.958" stroke="white" stroke-width="6"/>
<line x1="646" y1="162.5" x2="916" y2="162.5" stroke="black" stroke-width="3"/>
<line x1="679" y1="182.5" x2="888" y2="182.5" stroke="black" stroke-opacity="0.5"/>
<path d="M151 136.333C145.109 136.333 140.333 141.109 140.333 147C140.333 152.891 145.109 157.667 151 157.667C156.891 157.667 161.667 152.891 161.667 147C161.667 141.109 156.891 136.333 151 136.333ZM149 6L149 147L153 147L153 6L149 6Z" fill="black"/>
<path d="M194 194.667C186.636 194.667 180.667 200.636 180.667 208C180.667 215.364 186.636 221.333 194 221.333C201.364 221.333 207.333 215.364 207.333 208C207.333 200.636 201.364 194.667 194 194.667ZM191.5 5.37151e-10L191.5 208L196.5 208L196.5 -5.37151e-10L191.5 5.37151e-10Z" fill="black"/>
<line x1="263.5" y1="44" x2="263.5" y2="197" stroke="#535F82" stroke-width="9"/>
<circle cx="354.5" cy="168.5" r="53.5" fill="black"/>
<circle cx="354.5" cy="168.5" r="53" stroke="black" stroke-opacity="0.5"/>
<circle cx="575.5" cy="373.5" r="19.5" fill="black"/>
<circle cx="575.5" cy="373.5" r="19" stroke="black" stroke-opacity="0.5"/>
<circle cx="842.5" cy="92.5" r="11.5" fill="black"/>
<circle cx="842.5" cy="92.5" r="11" stroke="black" stroke-opacity="0.5"/>
<line x1="2.18557e-06" y1="338" x2="291" y2="338" stroke="black" stroke-width="50"/>
<line x1="124" y1="343.5" x2="221" y2="343.5" stroke="black" stroke-opacity="0.5"/>
<mask id="path-34-inside-1_69_223" fill="white">
<path d="M942.943 243.127C900.789 243.161 860.374 259.939 830.591 289.771C800.807 319.602 784.094 360.044 784.127 402.198C784.161 444.352 800.939 484.766 830.771 514.55C860.602 544.334 901.044 561.047 943.198 561.013L943.185 544.78C905.336 544.811 869.025 529.804 842.24 503.062C815.455 476.321 800.391 440.034 800.36 402.185C800.33 364.336 815.337 328.025 842.078 301.24C868.82 274.455 905.107 259.391 942.956 259.36L942.943 243.127Z"/>
</mask>
<path d="M942.943 243.127C900.789 243.161 860.374 259.939 830.591 289.771C800.807 319.602 784.094 360.044 784.127 402.198C784.161 444.352 800.939 484.766 830.771 514.55C860.602 544.334 901.044 561.047 943.198 561.013L943.185 544.78C905.336 544.811 869.025 529.804 842.24 503.062C815.455 476.321 800.391 440.034 800.36 402.185C800.33 364.336 815.337 328.025 842.078 301.24C868.82 274.455 905.107 259.391 942.956 259.36L942.943 243.127Z" fill="black" stroke="black" stroke-opacity="0.5" stroke-width="2" mask="url(#path-34-inside-1_69_223)"/>
<mask id="path-35-inside-2_69_223" fill="white">
<path d="M901.683 473.277C917.247 485.718 937.115 491.468 956.918 489.26C976.721 487.052 994.835 477.068 1007.28 461.505C1019.72 445.941 1025.47 426.073 1023.26 406.27C1021.05 386.467 1011.07 368.353 995.505 355.911L990.714 361.904C1004.69 373.075 1013.65 389.34 1015.63 407.12C1017.62 424.9 1012.45 442.74 1001.28 456.714C990.112 470.688 973.848 479.652 956.068 481.634C938.287 483.616 920.448 478.454 906.474 467.283L901.683 473.277Z"/>
</mask>
<path d="M901.683 473.277C917.247 485.718 937.115 491.468 956.918 489.26C976.721 487.052 994.835 477.068 1007.28 461.505C1019.72 445.941 1025.47 426.073 1023.26 406.27C1021.05 386.467 1011.07 368.353 995.505 355.911L990.714 361.904C1004.69 373.075 1013.65 389.34 1015.63 407.12C1017.62 424.9 1012.45 442.74 1001.28 456.714C990.112 470.688 973.848 479.652 956.068 481.634C938.287 483.616 920.448 478.454 906.474 467.283L901.683 473.277Z" fill="black" stroke="black" stroke-opacity="0.5" stroke-width="2" mask="url(#path-35-inside-2_69_223)"/>
<path d="M289.5 592C271.333 592 253.909 584.783 241.063 571.937C228.217 559.091 221 541.667 221 523.5C221 505.333 228.217 487.909 241.063 475.063C253.909 462.217 271.333 455 289.5 455L289.5 461.996C273.188 461.996 257.544 468.476 246.01 480.01C234.476 491.544 227.996 507.188 227.996 523.5C227.996 539.812 234.476 555.456 246.01 566.99C257.544 578.524 273.188 585.004 289.5 585.004L289.5 592Z" fill="#535F82"/>
<path d="M152.5 590C170.667 590 188.091 582.783 200.937 569.937C213.783 557.091 221 539.667 221 521.5C221 503.333 213.783 485.909 200.937 473.063C188.091 460.217 170.667 453 152.5 453L152.5 459.996C168.812 459.996 184.456 466.476 195.99 478.01C207.524 489.544 214.004 505.188 214.004 521.5C214.004 537.812 207.524 553.456 195.99 564.99C184.456 576.524 168.812 583.004 152.5 583.004L152.5 590Z" fill="#535F82"/>
<line x1="479.5" y1="24" x2="479.5" y2="237" stroke="black"/>
<line x1="58" y1="282.5" x2="194" y2="282.5" stroke="black"/>
<line x1="416.5" y1="476.002" x2="415.5" y2="264.002" stroke="black"/>
<path d="M402 214C402 204.939 400.733 195.966 398.27 187.595C395.808 179.223 392.198 171.617 387.648 165.21C383.098 158.802 377.696 153.72 371.751 150.252C365.807 146.785 359.435 145 353 145C346.565 145 340.193 146.785 334.249 150.252C328.304 153.72 322.902 158.802 318.352 165.21C313.802 171.617 310.192 179.223 307.73 187.595C305.267 195.966 304 204.939 304 214H306.015C306.015 205.311 307.23 196.708 309.591 188.68C311.952 180.653 315.413 173.359 319.776 167.216C324.139 161.072 329.319 156.198 335.019 152.873C340.72 149.548 346.83 147.837 353 147.837C359.17 147.837 365.28 149.548 370.981 152.873C376.681 156.198 381.861 161.072 386.224 167.216C390.587 173.359 394.048 180.653 396.409 188.68C398.77 196.708 399.985 205.311 399.985 214H402Z" fill="white"/>
<path d="M397.571 105.333C389.616 105.508 381.774 107.239 374.492 110.427C367.21 113.615 360.63 118.197 355.129 123.912C349.627 129.628 345.312 136.364 342.429 143.737C339.546 151.109 338.151 158.974 338.325 166.882C338.499 174.789 340.238 182.585 343.443 189.824C346.648 197.062 351.255 203.602 357.003 209.07C362.751 214.538 369.525 218.826 376.941 221.691C384.356 224.555 392.267 225.939 400.221 225.764L400.167 223.288C392.539 223.456 384.954 222.129 377.843 219.382C370.733 216.636 364.237 212.524 358.725 207.281C353.214 202.038 348.796 195.767 345.723 188.826C342.65 181.884 340.982 174.409 340.815 166.827C340.649 159.244 341.986 151.703 344.75 144.633C347.515 137.564 351.653 131.104 356.928 125.624C362.204 120.144 368.513 115.75 375.495 112.693C382.478 109.636 389.998 107.976 397.625 107.809L397.571 105.333Z" fill="#CBCBCB"/>
<path d="M360.001 335.329C359.906 344.165 366.993 351.405 375.829 351.499C384.665 351.593 391.905 344.507 391.999 335.671C392.093 326.835 385.007 319.595 376.171 319.501C367.335 319.407 360.095 326.493 360.001 335.329ZM141.968 336L375.968 338.5L376.032 332.5L142.032 330L141.968 336Z" fill="#F4F0F0"/>
<circle cx="570.5" cy="562.5" r="20.5" fill="#D9D9D9"/>
<circle cx="942.5" cy="405.5" r="79.5" fill="#535F82"/>
</svg>
